Coordinates
version=1
nRows=8
nColumns=36
inDegrees=yes

Units are S.I. units (second, meters, Newtons, ...)
If the header above contains a line with 'inDegrees', this indicates whether rotational values are in degrees (yes) or radians (no).

endheader
time	pelvis_tilt	pelvis_list	pelvis_rotation	pelvis_tx	pelvis_ty	pelvis_tz	hip_flexion_r	hip_adduction_r	hip_rotation_r	knee_angle_r	knee_angle_r_beta	ankle_angle_r	subtalar_angle_r	mtp_angle_r	hip_flexion_l	hip_adduction_l	hip_rotation_l	knee_angle_l	knee_angle_l_beta	ankle_angle_l	subtalar_angle_l	mtp_angle_l	lumbar_extension	lumbar_bending	lumbar_rotation	arm_flex_r	arm_add_r	arm_rot_r	elbow_flex_r	pro_sup_r	arm_flex_l	arm_add_l	arm_rot_l	elbow_flex_l	pro_sup_l
      2.21666670	      6.11917337	     -0.58844764	     -1.13770372	      0.40541314	      0.90405373	     -0.09737651	     -8.65327301	     -1.38156750	      0.63873230	      2.33777927	      0.04080195	      8.39620923	    -16.06726461	     -7.49999987	     -7.17875277	     -2.75701174	      6.84686211	      3.00563987	      0.05245831	      5.72877255	    -13.14568248	     -7.49999987	    -11.74419954	     -1.53560785	     -0.03032175	     10.55825466	    -10.51939926	     51.51258895	     26.85086379	     64.18499373	      7.14404116	    -11.67597658	     43.59451099	     26.47953337	     55.19256108
      2.23333330	      5.99223827	     -0.57926945	     -1.12751245	      0.40421472	      0.90279017	     -0.09508648	     -8.51272667	     -1.37272313	      0.64223090	      2.31563256	      0.04041541	      8.55030634	    -16.02691835	     -7.49999987	     -6.97538199	     -2.76675432	      6.74529766	      3.12675622	      0.05457219	      5.99194874	    -12.81732083	     -7.49999987	    -11.62958942	     -1.60009526	     -0.02657657	     10.53424395	    -10.46735084	     51.45650217	     26.81590784	     64.05599171	      7.13959411	    -11.70205925	     43.52001540	     26.39639884	     55.23854941
      2.25000000	      5.88982758	     -0.56425924	     -1.12484554	      0.40366596	      0.90426175	     -0.09535080	     -8.37709593	     -1.36625521	      0.67265830	      2.34928128	      0.04100269	      8.57407740	    -16.00334660	     -7.49999987	     -6.83963254	     -2.76855955	      6.92903470	      3.09958901	      0.05409803	      5.68709947	    -13.24103172	     -7.49999987	    -11.59080966	     -1.65061667	     -0.02652852	     10.54354198	    -10.45322239	     51.49691485	     26.79541901	     64.20334639	      7.18278266	    -11.75118362	     43.55144454	     26.44066232	     55.11765539
      2.26666670	      5.73680378	     -0.57115918	     -1.14845038	      0.40267932	      0.90303016	     -0.09522820	     -8.15109176	     -1.32769884	      0.67785055	      2.38034619	      0.04154488	      8.57082713	    -16.05962172	     -7.49999987	     -6.62884280	     -2.78217582	      6.92811628	      3.09650479	      0.05404420	      5.70605723	    -13.24639936	     -7.49999987	    -11.52867271	     -1.68972157	     -0.01431601	     10.62320227	    -10.44404165	     51.69948799	     26.78328356	     64.24108875	      7.27995183	    -11.82073580	     43.66634682	     26.44238094	     55.08136278
      2.28333330	      5.66586211	     -0.61009463	     -1.16883358	      0.40273077	      0.90196731	     -0.09337828	     -8.03330008	     -1.21760262	      0.73881593	      2.36848548	      0.04133787	      8.54618678	    -16.14285351	     -7.49999987	     -6.53315704	     -2.86038439	      6.86493963	      3.04738450	      0.05318689	      5.77754255	    -13.16585205	     -7.49999987	    -11.58928148	     -1.71521539	      0.00857876	     10.64993896	    -10.36981712	     51.44117010	     26.79111907	     64.09548747	      7.33699643	    -11.89003313	     43.44302444	     26.49937904	     55.10580803
      2.30000000	      5.58647518	     -0.61689212	     -1.20658312	      0.40353654	      0.90287919	     -0.09602094	     -7.91542684	     -1.20323800	      0.67972005	      2.41864120	      0.04221325	      8.56263914	    -16.11036548	     -7.49999987	     -6.45989749	     -2.87502313	      6.64392759	      2.97330133	      0.05189390	      5.94743912	    -12.74127458	     -7.49999987	    -11.65141349	     -1.78655447	      0.00901240	     10.60231179	    -10.30714587	     51.06799692	     26.83259702	     63.84217468	      7.32289472	    -11.90454270	     43.00032333	     26.56271924	     55.29531927
      2.31666670	      5.46478776	     -0.63428142	     -1.25158058	      0.40077961	      0.90188704	     -0.09270719	     -7.73094798	     -1.13345934	      0.79510454	      2.35821380	      0.04115860	      8.61271909	    -16.15075004	     -7.49999987	     -6.30169630	     -2.94951087	      6.69483368	      2.88158689	      0.05029318	      5.94951843	    -12.82655728	     -7.49999987	    -11.72962834	     -1.87321472	      0.01004056	     10.68155358	    -10.24876135	     51.08102634	     26.85847092	     63.87528631	      7.48391028	    -12.04564371	     42.99097842	     26.57806107	     55.26957750
      2.33333330	      5.35298883	     -0.63638924	     -1.26009234	      0.40302339	      0.90293604	     -0.09658624	     -7.61783514	     -1.16961207	      0.80701974	      2.32438883	      0.04056824	      8.58485062	    -16.15946351	     -7.49999987	     -6.21067551	     -2.94358202	      6.72917094	      2.76640599	      0.04828289	      5.93186421	    -12.82761782	     -7.49999987	    -11.81664256	     -1.86486277	     -0.01541164	     10.70405744	    -10.28463167	     51.08112289	     26.83966154	     63.88724344	      7.54537687	    -12.06319270	     42.99003539	     26.59321967	     55.25975427
